<svg width="28" height="28" viewBox="0 0 28 28" fill="none" xmlns="http://www.w3.org/2000/svg">
<path d="M8.15988 4.53333H9.97321C10.2452 4.53333 10.4265 4.352 10.4265 4.08V2.72H16.7732V4.08C16.7732 4.352 16.9545 4.53333 17.2265 4.53333H19.0399C19.3119 4.53333 19.4932 4.352 19.4932 4.08V2.72C19.4932 1.224 18.2692 0 16.7732 0H10.4265C8.93054 0 7.70654 1.224 7.70654 2.72V4.08C7.70654 4.352 7.88788 4.53333 8.15988 4.53333Z" fill="currentColor"/>
<path d="M24.48 7.25342H2.72C1.224 7.25342 0 8.47742 0 9.97342V24.4801C0 25.9761 1.224 27.2001 2.72 27.2001H24.48C25.976 27.2001 27.2 25.9761 27.2 24.4801V9.97342C27.2 8.47742 25.976 7.25342 24.48 7.25342ZM17.4533 17.2721L12.6933 22.9841C12.4213 23.2561 11.968 23.0294 12.0587 22.6667L13.2373 18.5868H10.1093C9.74667 18.5868 9.47467 18.2241 9.61067 17.8614L11.5147 12.9654C11.696 12.5574 12.0587 12.2854 12.512 12.2854H15.5947H16.2747C16.6827 12.2854 16.9547 12.6934 16.728 13.0561L14.688 16.3201H17.0453C17.4987 16.3201 17.7707 16.9094 17.4533 17.2721Z" fill="currentColor"/>
</svg>
