<svg width="24" height="24" viewBox="0 0 24 24" fill="none" xmlns="http://www.w3.org/2000/svg">
<g clip-path="url(#clip0_568_2350)">
<path d="M15.9 12L7.3308 3.09597C7.17639 2.93945 7.08982 2.72843 7.08982 2.50857C7.08982 2.28871 7.17639 2.07769 7.3308 1.92117C7.40673 1.84407 7.49723 1.78284 7.59705 1.74105C7.69686 1.69926 7.80399 1.67773 7.9122 1.67773C8.02041 1.67773 8.12754 1.69926 8.22735 1.74105C8.32717 1.78284 8.41767 1.84407 8.4936 1.92117L17.8896 11.4108C18.044 11.5673 18.1306 11.7783 18.1306 11.9982C18.1306 12.218 18.044 12.4291 17.8896 12.5856L8.4936 22.0752C8.41767 22.1523 8.32717 22.2135 8.22735 22.2553C8.12754 22.2971 8.02041 22.3186 7.9122 22.3186C7.80399 22.3186 7.69686 22.2971 7.59705 22.2553C7.49723 22.2135 7.40673 22.1523 7.3308 22.0752C7.17639 21.9187 7.08982 21.7076 7.08982 21.4878C7.08982 21.2679 7.17639 21.0569 7.3308 20.9004L15.9 12Z" fill="currentColor"/>
</g>
<defs>
<clipPath id="clip0_568_2350">
<rect width="24" height="24" fill="white"/>
</clipPath>
</defs>
</svg>
