<svg width="48" height="48" viewBox="0 0 48 48" fill="none" xmlns="http://www.w3.org/2000/svg">
<path fill-rule="evenodd" clip-rule="evenodd" d="M20 4C18.3431 4 17 5.34315 17 7H14C12.3431 7 11 8.34315 11 10V38C11 39.6569 12.3431 41 14 41H26V39H14C13.4477 39 13 38.5523 13 38V10C13 9.44772 13.4477 9 14 9H17C17 10.6569 18.3431 12 20 12H28C29.6569 12 31 10.6569 31 9H34C34.5523 9 35 9.44772 35 10V25H37V10C37 8.34315 35.6569 7 34 7H31C31 5.34315 29.6569 4 28 4H20ZM19 7C19 6.44772 19.4477 6 20 6H28C28.5523 6 29 6.44772 29 7V9C29 9.55228 28.5523 10 28 10H20C19.4477 10 19 9.55228 19 9V7Z" fill="currentColor"/>
<path fill-rule="evenodd" clip-rule="evenodd" d="M22.6 28.5058C23.7709 28.8741 24.6 29 24.6 29V26.0833H24.9583C28.2951 26.0833 31 23.3784 31 20.0417C31 16.705 28.2951 14 24.9583 14H21.0417C17.7049 14 15 16.705 15 20.0417C15 25.3376 19.7866 27.6211 22.6 28.5058ZM24.9583 24.0833H22.6V26.3957C22.0172 26.1856 21.3818 25.9161 20.7537 25.5754C18.671 24.4454 17 22.7488 17 20.0417C17 17.8095 18.8095 16 21.0417 16H24.9583C27.1905 16 29 17.8095 29 20.0417C29 22.2738 27.1905 24.0833 24.9583 24.0833Z" fill="currentColor"/>
<path fill-rule="evenodd" clip-rule="evenodd" d="M32.2 42C32.2 42 33.0163 41.8898 34.2 41.5741C37.322 40.7415 43 38.4798 43 33.0417C43 29.705 40.2951 27 36.9583 27H31.0417C27.705 27 25 29.705 25 33.0417C25 36.3784 27.705 39.0833 31.0417 39.0833H32.2V42ZM34.2 37.0833H31.0417C28.8095 37.0833 27 35.2738 27 33.0417C27 30.8095 28.8095 29 31.0417 29H36.9583C39.1905 29 41 30.8095 41 33.0417C41 35.6246 39.1922 37.345 36.7312 38.5319C35.859 38.9525 34.9752 39.267 34.2 39.4966V37.0833Z" fill="currentColor"/>
</svg>
