<svg width="36" height="36" viewBox="0 0 36 36" fill="none" xmlns="http://www.w3.org/2000/svg">
<path d="M24.5169 13.44L19.9588 18L24.5169 22.56C24.653 22.6868 24.7621 22.8396 24.8378 23.0095C24.9134 23.1793 24.9541 23.3627 24.9574 23.5486C24.9607 23.7345 24.9265 23.9192 24.8568 24.0916C24.7872 24.264 24.6836 24.4206 24.5521 24.5521C24.4206 24.6836 24.264 24.7872 24.0916 24.8568C23.9192 24.9265 23.7345 24.9607 23.5486 24.9574C23.3627 24.9541 23.1793 24.9134 23.0095 24.8378C22.8396 24.7621 22.6868 24.653 22.56 24.5169L18 19.9588L13.44 24.5169C13.1775 24.7615 12.8304 24.8947 12.4717 24.8883C12.1129 24.882 11.7707 24.7367 11.517 24.483C11.2633 24.2293 11.118 23.8871 11.1117 23.5283C11.1053 23.1696 11.2385 22.8225 11.4831 22.56L16.0412 18L11.4831 13.44C11.2385 13.1775 11.1053 12.8304 11.1117 12.4717C11.118 12.1129 11.2633 11.7707 11.517 11.517C11.7707 11.2633 12.1129 11.118 12.4717 11.1117C12.8304 11.1053 13.1775 11.2385 13.44 11.4831L18 16.0412L22.56 11.4831C22.8225 11.2385 23.1696 11.1053 23.5283 11.1117C23.8871 11.118 24.2293 11.2633 24.483 11.517C24.7367 11.7707 24.882 12.1129 24.8883 12.4717C24.8947 12.8304 24.7615 13.1775 24.5169 13.44ZM36 12.4615V23.5385C35.9961 26.8423 34.6819 30.0096 32.3458 32.3458C30.0096 34.6819 26.8423 35.9961 23.5385 36H12.4615C9.15773 35.9961 5.99036 34.6819 3.65422 32.3458C1.31807 30.0096 0.00390868 26.8423 0 23.5385V12.4615C0.00390868 9.15773 1.31807 5.99036 3.65422 3.65422C5.99036 1.31807 9.15773 0.00390868 12.4615 0H23.5385C26.8423 0.00390868 30.0096 1.31807 32.3458 3.65422C34.6819 5.99036 35.9961 9.15773 36 12.4615ZM33.2308 12.4615C33.2278 9.89188 32.2057 7.42831 30.3887 5.61128C28.5717 3.79426 26.1081 2.77216 23.5385 2.76923H12.4615C9.89188 2.77216 7.42831 3.79426 5.61128 5.61128C3.79426 7.42831 2.77216 9.89188 2.76923 12.4615V23.5385C2.77216 26.1081 3.79426 28.5717 5.61128 30.3887C7.42831 32.2057 9.89188 33.2278 12.4615 33.2308H23.5385C26.1081 33.2278 28.5717 32.2057 30.3887 30.3887C32.2057 28.5717 33.2278 26.1081 33.2308 23.5385V12.4615Z" fill="white"/>
</svg>
