<svg width="41" height="44" viewBox="0 0 41 44" fill="none" xmlns="http://www.w3.org/2000/svg">
<path d="M2.30991 15.4127C1.69092 16.0317 1.69092 17.028 1.69092 19.0205V31.7009C1.69092 33.6934 1.69092 34.6897 2.30991 35.3087C2.92893 35.9277 3.92519 35.9277 5.91772 35.9277C7.91026 35.9277 8.90652 35.9277 9.52553 35.3087C10.1445 34.6897 10.1445 33.6934 10.1445 31.7009V19.0205C10.1445 17.028 10.1445 16.0317 9.52553 15.4127C8.90652 14.7937 7.91026 14.7937 5.91772 14.7937C3.92519 14.7937 2.92893 14.7937 2.30991 15.4127Z" fill="white"/>
<path opacity="0.4" d="M31.4745 0.618994C30.8555 1.23801 30.8555 2.23427 30.8555 4.2268V31.701C30.8555 33.6935 30.8555 34.6898 31.4745 35.3088C32.0935 35.9278 33.0898 35.9278 35.0823 35.9278C37.0748 35.9278 38.071 35.9278 38.6901 35.3088C39.3091 34.6898 39.3091 33.6935 39.3091 31.701V4.2268C39.3091 2.23427 39.3091 1.23801 38.6901 0.618994C38.071 1.25969e-07 37.0748 0 35.0823 0C33.0898 0 32.0935 1.25969e-07 31.4745 0.618994Z" fill="white"/>
<path opacity="0.7" d="M16.4844 10.5669C16.4844 8.57436 16.4844 7.5781 17.0724 6.95908C17.6605 6.34009 18.6069 6.34009 20.4998 6.34009C22.3927 6.34009 23.3392 6.34009 23.9272 6.95908C24.5153 7.5781 24.5153 8.57436 24.5153 10.5669V31.7009C24.5153 33.6934 24.5153 34.6897 23.9272 35.3087C23.3392 35.9277 22.3927 35.9277 20.4998 35.9277C18.6069 35.9277 17.6605 35.9277 17.0724 35.3087C16.4844 34.6897 16.4844 33.6934 16.4844 31.7009V10.5669Z" fill="white"/>
<path d="M1.57692 40.5774C0.70602 40.5774 0 41.2398 0 42.0568C0 42.8738 0.70602 43.5362 1.57692 43.5362H39.4231C40.294 43.5362 41 42.8738 41 42.0568C41 41.2398 40.294 40.5774 39.4231 40.5774H1.57692Z" fill="white"/>
</svg>
