<svg width="27" height="27" viewBox="0 0 27 27" fill="none" xmlns="http://www.w3.org/2000/svg">
<path opacity="0.5" d="M14.6069 25.3065L15.2111 24.2865C15.6797 23.4953 15.914 23.0996 16.2904 22.8808C16.6669 22.6621 17.1407 22.6539 18.0884 22.6376C19.4877 22.6135 20.3652 22.5279 21.1012 22.2233C22.4667 21.6581 23.5516 20.5739 24.1172 19.2093C24.3254 18.707 24.4315 18.1385 24.4854 17.3831C24.5141 16.9829 24.5284 16.7828 24.4215 16.6227C24.3147 16.4625 24.112 16.3945 23.7063 16.2586C22.0057 15.6887 18.0657 14.2387 15.8625 12.376C13.3791 10.2764 11.1575 6.00807 10.3626 4.37204C10.2045 4.0468 10.1255 3.88418 9.98679 3.79836C9.84806 3.71255 9.67211 3.71441 9.32021 3.71813C7.03165 3.74229 5.99529 3.86898 4.91104 4.53296C4.16118 4.99216 3.53073 5.62219 3.07122 6.37154C2.25 7.71073 2.25 9.53373 2.25 13.1797V14.2936C2.25 16.8884 2.25 18.1859 2.6742 19.2093C3.23982 20.5739 4.32471 21.6581 5.69022 22.2233C6.42617 22.5279 7.30371 22.6135 8.7029 22.6376C9.65067 22.6539 10.1245 22.6621 10.5009 22.8808C10.8773 23.0996 11.1116 23.4953 11.5803 24.2865L12.1845 25.3065C12.7231 26.2158 14.0683 26.2158 14.6069 25.3065Z" fill="currentColor"/>
<path fill-rule="evenodd" clip-rule="evenodd" d="M16.731 0.269132C17.1083 0.624848 17.1045 1.19802 16.7225 1.54935L15.4826 2.68949C16.5613 2.69964 17.5988 2.72412 18.5352 2.78312C19.3403 2.83385 20.0944 2.91139 20.7515 3.0331C21.3952 3.15232 22.0153 3.32596 22.5079 3.6035C23.4233 4.11937 24.1942 4.82784 24.7567 5.67177C25.2977 6.48369 25.5361 7.40142 25.6505 8.50811C25.7624 9.59083 25.7624 10.9439 25.7624 12.6596V12.7072C25.7624 13.2072 25.3271 13.6125 24.7901 13.6125C24.2531 13.6125 23.8177 13.2072 23.8177 12.7072C23.8177 10.9334 23.8167 9.66744 23.7148 8.68159C23.6143 7.70971 23.4227 7.1044 23.1041 6.62631C22.7045 6.02657 22.1554 5.52123 21.5009 5.15242C21.292 5.0347 20.9286 4.91192 20.3721 4.80882C19.829 4.70823 19.1664 4.63756 18.4039 4.58952C17.5229 4.53401 16.5404 4.51036 15.4985 4.50029L16.7225 5.62576C17.1045 5.9771 17.1083 6.55027 16.731 6.90598C16.3536 7.26171 15.738 7.26526 15.3559 6.91394L12.439 4.23164C12.254 4.06155 12.1499 3.8296 12.1499 3.58756C12.1499 3.34551 12.254 3.11356 12.439 2.94347L15.3559 0.261186C15.738 -0.0901416 16.3536 -0.086584 16.731 0.269132Z" fill="currentColor"/>
</svg>
