<svg width="34" height="35" viewBox="0 0 34 35" fill="none" xmlns="http://www.w3.org/2000/svg">
<path d="M17.9956 14.7408L0.483217 32.2028C-0.161072 32.8455 -0.161072 33.8847 0.483217 34.5205C1.12751 35.1564 2.16934 35.1632 2.80677 34.5205L6.71364 30.6234H11.3745C14.781 30.6234 18.0847 29.6389 20.9017 27.8202C21.6625 27.3279 21.2787 26.2476 20.3671 26.2476C20.0175 26.2476 19.7365 25.9673 19.7365 25.6186C19.7365 25.3383 19.9216 25.099 20.182 25.017L25.7339 23.3556C25.9053 23.3009 26.0629 23.212 26.1931 23.0821L27.7285 21.5506C28.4207 20.86 27.9272 19.684 26.9539 19.684H24.7469C24.3973 19.684 24.1163 19.4037 24.1163 19.055C24.1163 18.7747 24.3014 18.5354 24.5618 18.4533L32.2385 16.1561C32.5126 16.074 32.7457 15.8894 32.8759 15.6296C33.6162 14.1938 34 12.5871 34 10.9394C34 8.13616 32.8828 5.44917 30.8951 3.46641L30.5181 3.09037C28.5372 1.11445 25.8436 0 23.0334 0C20.2232 0 17.5295 1.11445 15.5418 3.09721L8.43403 10.1873C5.14404 13.4691 3.29342 17.9201 3.29342 22.5624V26.3434L16.2889 13.3871C16.7138 12.9632 17.413 12.9632 17.8379 13.3871C18.208 13.7563 18.256 14.3169 17.9887 14.7408H17.9956Z" fill="#9365F5"/>
</svg>
