<svg width="21" height="21" viewBox="0 0 21 21" fill="none" xmlns="http://www.w3.org/2000/svg">
<g clip-path="url(#clip0_133_1237)">
<path d="M10.0499 8.19918C10.1942 7.76605 10.8059 7.76605 10.9502 8.19918L11.7968 10.7415C11.9831 11.3004 12.2971 11.8081 12.7138 12.2246C13.1305 12.641 13.6384 12.9547 14.1974 13.1407L16.7384 13.9873C17.1715 14.1317 17.1715 14.7433 16.7384 14.8877L14.1961 15.7342C13.6372 15.9206 13.1294 16.2345 12.713 16.6512C12.2965 17.0679 11.9828 17.5758 11.7968 18.1348L10.9502 20.6758C10.9191 20.7706 10.8588 20.8532 10.778 20.9118C10.6971 20.9703 10.5999 21.0019 10.5001 21.0019C10.4002 21.0019 10.303 20.9703 10.2221 20.9118C10.1413 20.8532 10.081 20.7706 10.0499 20.6758L9.20331 18.1335C9.0171 17.5748 8.70335 17.0671 8.28691 16.6506C7.87047 16.2342 7.36278 15.9204 6.80406 15.7342L4.26174 14.8877C4.1669 14.8565 4.08431 14.7963 4.02576 14.7154C3.96721 14.6346 3.93568 14.5373 3.93568 14.4375C3.93568 14.3377 3.96721 14.2404 4.02576 14.1596C4.08431 14.0787 4.1669 14.0184 4.26174 13.9873L6.80406 13.1407C7.36278 12.9545 7.87047 12.6408 8.28691 12.2243C8.70335 11.8079 9.0171 11.3002 9.20331 10.7415L10.0499 8.19918ZM4.97968 1.50674C4.9985 1.4499 5.03476 1.40044 5.08329 1.36538C5.13183 1.33032 5.19018 1.31145 5.25006 1.31145C5.30993 1.31145 5.36828 1.33032 5.41682 1.36538C5.46536 1.40044 5.50161 1.4499 5.52043 1.50674L6.02837 3.03186C6.25543 3.71174 6.78831 4.24461 7.46818 4.47168L8.99331 4.97961C9.05015 4.99843 9.09961 5.03469 9.13466 5.08323C9.16972 5.13176 9.18859 5.19011 9.18859 5.24999C9.18859 5.30986 9.16972 5.36821 9.13466 5.41675C9.09961 5.46529 9.05015 5.50154 8.99331 5.52036L7.46818 6.0283C7.13287 6.14002 6.82819 6.32829 6.57827 6.5782C6.32836 6.82812 6.14008 7.1328 6.02837 7.46811L5.52043 8.99324C5.50161 9.05008 5.46536 9.09954 5.41682 9.13459C5.36828 9.16965 5.30993 9.18852 5.25006 9.18852C5.19018 9.18852 5.13183 9.16965 5.08329 9.13459C5.03476 9.09954 4.9985 9.05008 4.97968 8.99324L4.47174 7.46811C4.36003 7.1328 4.17175 6.82812 3.92184 6.5782C3.67193 6.32829 3.36724 6.14002 3.03193 6.0283L1.50681 5.52036C1.44997 5.50154 1.40051 5.46529 1.36545 5.41675C1.33039 5.36821 1.31152 5.30986 1.31152 5.24999C1.31152 5.19011 1.33039 5.13176 1.36545 5.08323C1.40051 5.03469 1.44997 4.99843 1.50681 4.97961L3.03193 4.47168C3.36724 4.35996 3.67193 4.17169 3.92184 3.92177C4.17175 3.67186 4.36003 3.36717 4.47174 3.03186L4.97968 1.50674ZM14.2577 0.129925C14.2707 0.0925536 14.295 0.0601475 14.3272 0.0372124C14.3594 0.0142774 14.398 0.00195312 14.4376 0.00195312C14.4771 0.00195313 14.5157 0.0142774 14.5479 0.0372124C14.5801 0.0601475 14.6044 0.0925536 14.6174 0.129925L14.956 1.1458C15.1069 1.59993 15.4626 1.95561 15.9167 2.10655L16.9326 2.44518C16.97 2.45813 17.0024 2.48241 17.0253 2.51464C17.0483 2.54686 17.0606 2.58543 17.0606 2.62499C17.0606 2.66454 17.0483 2.70311 17.0253 2.73534C17.0024 2.76756 16.97 2.79184 16.9326 2.8048L15.9167 3.14343C15.6929 3.21787 15.4896 3.34347 15.3228 3.51025C15.156 3.67702 15.0304 3.88038 14.956 4.10418L14.6174 5.12005C14.6044 5.15742 14.5801 5.18983 14.5479 5.21276C14.5157 5.2357 14.4771 5.24802 14.4376 5.24802C14.398 5.24802 14.3594 5.2357 14.3272 5.21276C14.295 5.18983 14.2707 5.15742 14.2577 5.12005L13.9191 4.10418C13.8447 3.88038 13.7191 3.67702 13.5523 3.51025C13.3855 3.34347 13.1822 3.21787 12.9584 3.14343L11.9438 2.8048C11.9064 2.79184 11.874 2.76756 11.8511 2.73534C11.8282 2.70311 11.8158 2.66454 11.8158 2.62499C11.8158 2.58543 11.8282 2.54686 11.8511 2.51464C11.874 2.48241 11.9064 2.45813 11.9438 2.44518L12.9597 2.10655C13.4138 1.95561 13.7695 1.59993 13.9204 1.1458L14.2577 0.131238V0.129925Z" fill="currentColor"/>
</g>
<defs>
<clipPath id="clip0_133_1237">
<rect width="21" height="21" fill="none"/>
</clipPath>
</defs>
</svg>
